<?xml version="1.0" encoding="utf-8"?>
<!-- Generator: Adobe Illustrator 23.0.3, SVG Export Plug-In . SVG Version: 6.00 Build 0)  -->
<svg version="1.1" id="Layer_1" xmlns="http://www.w3.org/2000/svg" xmlns:xlink="http://www.w3.org/1999/xlink" x="0px" y="0px"
	 viewBox="0 0 110 110" style="enable-background:new 0 0 110 110;" xml:space="preserve">
<style type="text/css">
	.st0{fill:#BE1E2D;stroke:#BE1E2D;stroke-miterlimit:10;}
	.st1{fill:#2E3192;stroke:#FFFFFF;stroke-miterlimit:10;}
	.st2{fill:#F9ED38;stroke:#BE1E2D;stroke-miterlimit:10;}
</style>
<circle class="st0" cx="55.25" cy="55.25" r="50"/>
<path class="st1" d="M88.2,56.45c0.18-16.42-14.41-26.56-14.41-26.56L61.7,9.62l1.42,20.62c-8.36,0.52-11.74,8.39-11.74,8.39
	c-3.74-15.9-0.53-26.73-0.53-26.73c-12.81,6.12-37.18,44.9-37.18,44.9l15.83-8.91l-9.25,17.47l14.94-13.63L24.87,71.3l14.41-15.38
	c11.21,8.56-7.65,36.34-7.65,36.34C43.55,84.58,54.4,69.03,54.4,69.03c3.76,9.74,18.57,21.98,23.07,25.54
	c0.8,0.63,1.97,0.59,2.68-0.15c4.07-4.22,7.85-14.7,8.75-17.3c0.13-0.38,0.19-0.78,0.17-1.19L88.2,56.45z"/>
<path class="st2" d="M82.11,63.83c1.13-5.34-1.13-11.33-1.13-11.33l-3.24,3.07L82.11,63.83z"/>
</svg>
