<?xml version="1.0" encoding="utf-8"?>
<!-- Generator: Adobe Illustrator 23.0.3, SVG Export Plug-In . SVG Version: 6.00 Build 0)  -->
<svg version="1.1" id="Layer_1" xmlns="http://www.w3.org/2000/svg" xmlns:xlink="http://www.w3.org/1999/xlink" x="0px" y="0px"
	 viewBox="0 0 110 110" style="enable-background:new 0 0 110 110;" xml:space="preserve">
<style type="text/css">
	.st0{fill:#FDF278;stroke:#FEBD2C;stroke-miterlimit:10;}
	.st1{fill:#D94126;stroke:#ED2124;stroke-miterlimit:10;}
	.st2{fill:#E19026;stroke:#ED2124;stroke-miterlimit:10;}
</style>
<circle class="st0" cx="55.09" cy="55.09" r="50"/>
<path class="st1" d="M35.92,88.89C15.52,74.61,17.99,66.97,18.4,66.15c0.02-0.05,0.08-0.05,0.12-0.01
	c7.6,7.57,11.39,7.57,11.39,7.57c-15.29-28.39,3.82-36.03,3.82-36.03c-6.01,17.47,4.91,22.33,4.91,22.33
	c-6.71-13.09,5.28-24.88,10.37-26.15c7.64-4.37,0.55-14.74,0.55-14.74C71.41,25.67,65.4,55.59,65.4,55.59
	c14.2-2.62,17.47-11.9,17.47-11.9c11.47,9.28-9.83,25.11-9.83,25.11c5.26,3.08,17.8-8.79,17.8-8.79
	c-2.98,21.39-18.86,31.18-22.13,32.67c-0.36,0.16-0.75,0.22-1.11,0.37C49.34,100.29,35.92,88.89,35.92,88.89z"/>
<path class="st2" d="M56.17,61.03c-15.1,4.01-8.23,9.55-7.7,10.53c0.04,0.07,0.06,0.14,0.06,0.22l0.88,4.07
	c0,0.45-1.46,1.05-1.71,0.68c-3.17-4.92-6.63-2.42-6.63-2.42c3.29,3.95,2.27,6.92,1.61,9c-0.81,2.51,0.73,5.2,3.27,5.92
	c18.2,5.12,21.11-5.16,21.11-5.16c-7.06-5.96,0-13.17,0-13.17c-5.85-2.44-8.29,5.89-8.29,5.89C52.58,70.97,56.17,61.03,56.17,61.03z
	"/>
</svg>
