<?xml version="1.0" encoding="utf-8"?>
<!-- Generator: Adobe Illustrator 23.0.3, SVG Export Plug-In . SVG Version: 6.00 Build 0)  -->
<svg version="1.1" id="Layer_1" xmlns="http://www.w3.org/2000/svg" xmlns:xlink="http://www.w3.org/1999/xlink" x="0px" y="0px"
	 viewBox="0 0 110 110" style="enable-background:new 0 0 110 110;" xml:space="preserve">
<style type="text/css">
	.st0{fill:#414042;stroke:#939598;stroke-miterlimit:10;}
	.st1{fill:#7958A5;stroke:#D1D3D4;stroke-miterlimit:10;}
</style>
<circle class="st0" cx="55.09" cy="54.44" r="50"/>
<path class="st1" d="M59.94,57.19c16.83-4.53,20.39-30.42,20.39-30.42C91.98,46.35,81.95,58,81.95,58
	C79.68,62.05,59.94,57.19,59.94,57.19z"/>
<path class="st1" d="M52.17,57.19c-17.16-4.53-20.79-30.42-20.79-30.42C19.5,46.35,29.73,58,29.73,58
	C32.04,62.05,52.17,57.19,52.17,57.19z"/>
<path class="st1" d="M86.96,67.55c-7.77,6.63-14.08,11.49-14.08,11.49l0.65,7.93c-1.13-1.13-5.18-6.31-5.18-6.31
	c-7.28,7.61-23.95,0.65-23.95,0.65l-4.85,6.5l-0.81-7.96C29.2,73.38,23.7,69.49,23.7,69.49C62.21,137.94,86.96,67.55,86.96,67.55z"
	/>
</svg>
